<?xml version="1.0" encoding="UTF-8" standalone="no"?>
<svg
   viewBox="0 0 512 512"
   version="1.1"
   id="svg23"
   sodipodi:docname="dice-six-faces-one.svg"
   inkscape:version="1.1 (c68e22c387, 2021-05-23)"
   xmlns:inkscape="http://www.inkscape.org/namespaces/inkscape"
   xmlns:sodipodi="http://sodipodi.sourceforge.net/DTD/sodipodi-0.dtd"
   xmlns="http://www.w3.org/2000/svg"
   xmlns:svg="http://www.w3.org/2000/svg">
  <defs
     id="defs27" />
  <sodipodi:namedview
     id="namedview25"
     pagecolor="#505050"
     bordercolor="#eeeeee"
     borderopacity="1"
     inkscape:pageshadow="0"
     inkscape:pageopacity="0"
     inkscape:pagecheckerboard="0"
     showgrid="false"
     inkscape:zoom="0.95507812"
     inkscape:cx="256"
     inkscape:cy="256"
     inkscape:window-width="1366"
     inkscape:window-height="697"
     inkscape:window-x="-8"
     inkscape:window-y="-8"
     inkscape:window-maximized="1"
     inkscape:current-layer="svg23" />
  <path
     d="M0 0h512v512H0z"
     id="path19" />
  <path
     fill="#fff"
     d="M74.5 36A38.5 38.5 0 0 0 36 74.5v363A38.5 38.5 0 0 0 74.5 476h363a38.5 38.5 0 0 0 38.5-38.5v-363A38.5 38.5 0 0 0 437.5 36h-363zM256 206a50 50 0 0 1 0 100 50 50 0 0 1 0-100z"
     id="path21"
     style="fill:#ffffff;stroke:#000000;stroke-opacity:0.81927711;stroke-width:5;stroke-miterlimit:4;stroke-dasharray:none" />
  <path
     style="fill:#ffffff;stroke-width:1.04703"
     d="M 0,256 V 0 H 256 512 V 256 512 H 256 0 Z m 453.54944,217.09176 c 8.31935,-3.89996 14.89089,-10.33373 18.92507,-18.52831 l 3.40279,-6.91206 V 256.02202 64.392638 l -2.78554,-5.942075 C 469.1918,50.131206 462.75803,43.559672 454.56345,39.525492 l -6.91206,-3.402793 H 256 64.348605 l -6.912052,3.402793 c -8.194585,4.03418 -14.628349,10.605714 -18.528315,18.925071 l -2.785539,5.942075 V 256 447.60736 l 2.75911,5.88435 c 4.875697,10.39838 13.525583,18.03344 24.23977,21.39589 3.600706,1.13001 39.362511,1.34835 194.448971,1.18718 l 190.03681,-0.19748 z"
     id="path220" />
</svg>
